G04*
G04 #@! TF.GenerationSoftware,Altium Limited,Altium Designer,25.0.2 (28)*
G04*
G04 Layer_Color=8421504*
%FSLAX44Y44*%
%MOMM*%
G71*
G04*
G04 #@! TF.SameCoordinates,89898D10-9EB2-4BDF-882C-36E145BBBF18*
G04*
G04*
G04 #@! TF.FilePolarity,Positive*
G04*
G01*
G75*
%ADD11R,1.6000X1.6000*%
%ADD12R,1.0500X0.4500*%
%ADD13R,0.5000X0.7000*%
G04:AMPARAMS|DCode=14|XSize=3mm|YSize=1mm|CornerRadius=0mm|HoleSize=0mm|Usage=FLASHONLY|Rotation=135.000|XOffset=0mm|YOffset=0mm|HoleType=Round|Shape=Rectangle|*
%AMROTATEDRECTD14*
4,1,4,1.4142,-0.7071,0.7071,-1.4142,-1.4142,0.7071,-0.7071,1.4142,1.4142,-0.7071,0.0*
%
%ADD14ROTATEDRECTD14*%

%ADD15R,0.8500X0.6000*%
D11*
X-264160Y-13170D02*
D03*
Y-90170D02*
D03*
D12*
X-212470Y56330D02*
D03*
Y62830D02*
D03*
Y49830D02*
D03*
Y43330D02*
D03*
Y36830D02*
D03*
Y30330D02*
D03*
Y23830D02*
D03*
Y17330D02*
D03*
Y10830D02*
D03*
Y4330D02*
D03*
X-267970Y56330D02*
D03*
Y62830D02*
D03*
Y49830D02*
D03*
Y43330D02*
D03*
Y36830D02*
D03*
Y30330D02*
D03*
Y23830D02*
D03*
Y17330D02*
D03*
Y10830D02*
D03*
Y4330D02*
D03*
D13*
X-213360Y-19050D02*
D03*
Y-9050D02*
D03*
D14*
X-178726Y-49186D02*
D03*
X-150442Y-20902D02*
D03*
X-164584Y-35044D02*
D03*
X-207010Y-77470D02*
D03*
X-192868Y-63328D02*
D03*
X-235294Y-105754D02*
D03*
X-221152Y-91612D02*
D03*
X-249436Y-119896D02*
D03*
X-37304Y-134039D02*
D03*
X-51446Y-148181D02*
D03*
X-79731Y-176465D02*
D03*
X-65589Y-162323D02*
D03*
X-108015Y-204749D02*
D03*
X-122157Y-218891D02*
D03*
X-93873Y-190607D02*
D03*
X-136299Y-233034D02*
D03*
D15*
X-184150Y48260D02*
D03*
Y33260D02*
D03*
X-171450Y39130D02*
D03*
Y24130D02*
D03*
M02*
