G04*
G04 #@! TF.GenerationSoftware,Altium Limited,Altium Designer,25.0.2 (28)*
G04*
G04 Layer_Physical_Order=1*
G04 Layer_Color=255*
%FSLAX44Y44*%
%MOMM*%
G71*
G04*
G04 #@! TF.SameCoordinates,89898D10-9EB2-4BDF-882C-36E145BBBF18*
G04*
G04*
G04 #@! TF.FilePolarity,Positive*
G04*
G01*
G75*
%ADD10C,0.2540*%
%ADD11R,1.6000X1.6000*%
%ADD12R,1.0500X0.4500*%
%ADD13R,0.5000X0.7000*%
G04:AMPARAMS|DCode=14|XSize=3mm|YSize=1mm|CornerRadius=0mm|HoleSize=0mm|Usage=FLASHONLY|Rotation=135.000|XOffset=0mm|YOffset=0mm|HoleType=Round|Shape=Rectangle|*
%AMROTATEDRECTD14*
4,1,4,1.4142,-0.7071,0.7071,-1.4142,-1.4142,0.7071,-0.7071,1.4142,1.4142,-0.7071,0.0*
%
%ADD14ROTATEDRECTD14*%

%ADD15R,0.8500X0.6000*%
%ADD22C,1.5240*%
G36*
X-170085Y164874D02*
X-171137Y162334D01*
X-172720D01*
X-173606Y162158D01*
X-174357Y161657D01*
X-177960Y158053D01*
X-180238Y159368D01*
X-179881Y160697D01*
Y162966D01*
X-180469Y165159D01*
X-181604Y167124D01*
X-183209Y168729D01*
X-185174Y169864D01*
X-187367Y170452D01*
X-189636D01*
X-191829Y169864D01*
X-193794Y168729D01*
X-195399Y167124D01*
X-196534Y165159D01*
X-196805Y164146D01*
X-217899D01*
X-218784Y163970D01*
X-219535Y163468D01*
X-258052Y124951D01*
X-258277Y124614D01*
X-258516Y124286D01*
X-272541Y93987D01*
X-274907Y94923D01*
X-270177Y109216D01*
X-263994Y123421D01*
X-258359Y134678D01*
X-249246Y150999D01*
X-240852Y164061D01*
X-231726Y176716D01*
X-221935Y188867D01*
X-211508Y200475D01*
X-210354Y201629D01*
X-208460Y203208D01*
X-208437Y203227D01*
X-170085Y164874D01*
D02*
G37*
G36*
X-150675Y138512D02*
X-150899Y137549D01*
X-151826Y136070D01*
X-153918D01*
X-156502Y135378D01*
X-158819Y134040D01*
X-158867Y133993D01*
X-151682Y126808D01*
X-152580Y125910D01*
X-151682Y125012D01*
X-158867Y117828D01*
X-158819Y117781D01*
X-156502Y116443D01*
X-153918Y115751D01*
X-151243D01*
X-150382Y114865D01*
X-149525Y113581D01*
X-149635Y113030D01*
Y66258D01*
X-149458Y65372D01*
X-148957Y64621D01*
X-146199Y61863D01*
X-145448Y61362D01*
X-144562Y61185D01*
X-103829D01*
X-97099Y54456D01*
Y53857D01*
X-105330Y26862D01*
X-105338Y26779D01*
X-105372Y26701D01*
X-105480Y26230D01*
X-105481Y26201D01*
X-105492Y26174D01*
X-107448Y16486D01*
X-107448Y16383D01*
X-107479Y16286D01*
X-107534Y15799D01*
X-107533Y15789D01*
X-107536Y15778D01*
X-108546Y5956D01*
X-108534Y5837D01*
X-108558Y5720D01*
Y2671D01*
X-111098Y2336D01*
X-111182Y2652D01*
X-112520Y4968D01*
X-114412Y6860D01*
X-116728Y8198D01*
X-119312Y8890D01*
X-119380D01*
Y-1270D01*
Y-11430D01*
X-119312D01*
X-116728Y-10738D01*
X-114412Y-9400D01*
X-112520Y-7508D01*
X-111182Y-5192D01*
X-111098Y-4876D01*
X-108558Y-5211D01*
Y-5720D01*
X-108483Y-6098D01*
X-107537Y-15701D01*
X-107528Y-15731D01*
X-107533Y-15800D01*
X-107479Y-16287D01*
X-107448Y-16384D01*
X-107448Y-16487D01*
X-105492Y-26174D01*
X-105481Y-26201D01*
X-105480Y-26230D01*
X-105372Y-26702D01*
X-105338Y-26779D01*
X-105330Y-26863D01*
X-102446Y-36321D01*
X-102423Y-36363D01*
X-102417Y-36410D01*
X-102258Y-36863D01*
X-102225Y-36920D01*
X-102212Y-36985D01*
X-98427Y-46122D01*
X-98390Y-46177D01*
X-98374Y-46241D01*
X-98165Y-46674D01*
X-98137Y-46712D01*
X-98123Y-46757D01*
X-93474Y-55484D01*
X-93421Y-55550D01*
X-93391Y-55629D01*
X-93133Y-56038D01*
X-93113Y-56059D01*
X-93102Y-56086D01*
X-87635Y-64319D01*
X-87563Y-64392D01*
X-87515Y-64482D01*
X-87210Y-64866D01*
X-87201Y-64873D01*
X-87196Y-64882D01*
X-80965Y-72542D01*
X-80873Y-72618D01*
X-80806Y-72718D01*
X-72718Y-80806D01*
X-72618Y-80873D01*
X-72542Y-80965D01*
X-64882Y-87196D01*
X-64873Y-87201D01*
X-64865Y-87210D01*
X-64482Y-87516D01*
X-64391Y-87563D01*
X-64319Y-87635D01*
X-56086Y-93102D01*
X-56059Y-93113D01*
X-56038Y-93133D01*
X-55629Y-93391D01*
X-55550Y-93421D01*
X-55484Y-93474D01*
X-46757Y-98123D01*
X-46712Y-98137D01*
X-46674Y-98165D01*
X-46241Y-98374D01*
X-46177Y-98390D01*
X-46122Y-98427D01*
X-36985Y-102212D01*
X-36920Y-102225D01*
X-36863Y-102258D01*
X-36410Y-102417D01*
X-36363Y-102423D01*
X-36321Y-102446D01*
X-26863Y-105330D01*
X-26779Y-105338D01*
X-26702Y-105372D01*
X-26230Y-105480D01*
X-26201Y-105481D01*
X-26174Y-105492D01*
X-16487Y-107448D01*
X-16384Y-107448D01*
X-16287Y-107479D01*
X-15800Y-107534D01*
X-15787Y-107532D01*
X-15776Y-107536D01*
X-5967Y-108532D01*
X-3684Y-109328D01*
Y-140111D01*
X-66999Y-203426D01*
X-77781D01*
X-80923Y-200284D01*
X-78317Y-197678D01*
X-100944Y-175051D01*
X-109429Y-183536D01*
X-86802Y-206163D01*
X-84196Y-203557D01*
X-80377Y-207377D01*
X-79626Y-207878D01*
X-78740Y-208055D01*
X-66040D01*
X-65154Y-207878D01*
X-64403Y-207377D01*
X-2455Y-145428D01*
X-108Y-146400D01*
X-108Y-294892D01*
X-7898D01*
X-23670Y-294046D01*
X-39375Y-292358D01*
X-54967Y-289832D01*
X-70401Y-286474D01*
X-85633Y-282295D01*
X-95536Y-278999D01*
X-96223Y-276094D01*
X-96153Y-276024D01*
X-95652Y-275274D01*
X-95476Y-274388D01*
Y-214974D01*
X-95498Y-214860D01*
X-92459Y-211820D01*
X-115086Y-189193D01*
X-123571Y-197678D01*
X-100944Y-220306D01*
X-100944D01*
X-100105Y-220653D01*
Y-270937D01*
X-102645Y-272668D01*
X-113920Y-268231D01*
X-128113Y-261749D01*
X-141940Y-254517D01*
X-155359Y-246555D01*
X-155365Y-246551D01*
X-155365Y-246551D01*
X-168333Y-237886D01*
X-180825Y-228535D01*
X-192798Y-218528D01*
X-204217Y-207897D01*
X-204220Y-207894D01*
X-215052Y-196668D01*
X-225271Y-184875D01*
X-234843Y-172553D01*
X-243742Y-159735D01*
X-251943Y-146460D01*
X-259421Y-132765D01*
X-266155Y-118690D01*
X-267043Y-116545D01*
X-264890Y-115106D01*
X-255666Y-124330D01*
X-250334Y-118998D01*
X-245003Y-113667D01*
X-255420Y-103250D01*
X-254368Y-100710D01*
X-253620D01*
Y-91440D01*
X-264160D01*
Y-90170D01*
X-265430D01*
Y-79630D01*
X-274700D01*
Y-89453D01*
X-277204Y-89881D01*
X-277317Y-89559D01*
X-281713Y-74587D01*
X-285302Y-59402D01*
X-288072Y-44046D01*
X-290017Y-28564D01*
X-291024Y-14486D01*
Y8293D01*
X-290753Y8515D01*
X-276373D01*
X-274220Y7580D01*
X-274220Y5040D01*
Y1080D01*
X-261720D01*
X-261720Y7580D01*
X-261720Y10120D01*
X-261720Y14080D01*
X-261720D01*
Y14080D01*
X-261720D01*
Y19040D01*
X-260180D01*
Y22560D01*
X-267970D01*
X-275760D01*
Y19644D01*
X-283304D01*
X-283369Y19710D01*
X-283369Y19710D01*
X-283435Y19777D01*
Y50163D01*
X-280743Y63701D01*
X-280445Y64869D01*
X-277904Y64550D01*
Y58957D01*
X-277824Y58550D01*
X-277756Y58140D01*
X-277736Y58108D01*
X-277728Y58071D01*
X-277498Y57726D01*
X-277278Y57374D01*
X-277248Y57352D01*
X-277227Y57320D01*
X-276882Y57090D01*
X-276544Y56848D01*
X-274220Y55797D01*
X-274220Y53080D01*
X-274220D01*
Y53080D01*
X-274220D01*
Y49120D01*
X-274220Y46580D01*
X-274220D01*
Y46580D01*
X-274220Y46580D01*
X-274220Y40080D01*
X-274220Y37540D01*
X-274220Y33580D01*
X-274220Y31160D01*
X-274510Y28620D01*
X-275760D01*
Y25100D01*
X-267970D01*
X-260180D01*
Y28620D01*
X-260180D01*
X-261720Y30160D01*
X-261720Y33580D01*
X-261720Y36120D01*
X-261720Y38955D01*
X-259180Y40007D01*
X-244884Y25711D01*
Y9379D01*
X-258433Y-4170D01*
X-273160D01*
Y-22170D01*
X-255160D01*
Y-7443D01*
X-242344Y5372D01*
X-239804Y4320D01*
Y-75274D01*
X-239628Y-76160D01*
X-239127Y-76911D01*
X-234102Y-81935D01*
X-236709Y-84541D01*
X-217879Y-103371D01*
X-218969Y-105873D01*
X-219033Y-105886D01*
X-219784Y-106388D01*
X-222980Y-109584D01*
X-242365Y-90198D01*
X-250851Y-98683D01*
X-228223Y-121311D01*
X-221501Y-114589D01*
X-221312Y-114462D01*
X-217188Y-110339D01*
X-213141D01*
X-212255Y-110163D01*
X-211504Y-109661D01*
X-203103Y-101260D01*
X-202602Y-100509D01*
X-202425Y-99623D01*
Y-96250D01*
X-202602Y-95364D01*
X-203103Y-94613D01*
X-226285Y-71431D01*
Y-65060D01*
X-223745Y-64008D01*
X-219960Y-67793D01*
X-222566Y-70399D01*
X-199939Y-93026D01*
X-191454Y-84541D01*
X-214081Y-61914D01*
X-216687Y-64520D01*
X-221206Y-60001D01*
Y948D01*
X-218720Y1080D01*
X-218666Y1080D01*
X-206220D01*
X-205515Y-1168D01*
Y-4121D01*
X-207320Y-5927D01*
X-209860Y-4875D01*
Y-4550D01*
X-216860D01*
Y-13010D01*
X-218400D01*
Y-17780D01*
X-213360D01*
X-208320D01*
Y-13010D01*
X-206516Y-11234D01*
X-206284Y-11188D01*
X-205533Y-10687D01*
X-201705Y-6858D01*
X-201103Y-6905D01*
X-199165Y-7698D01*
Y-17965D01*
X-201576Y-20375D01*
X-202077Y-21126D01*
X-202253Y-22012D01*
Y-50086D01*
X-208424Y-56257D01*
X-185797Y-78884D01*
X-177312Y-70399D01*
X-197624Y-50086D01*
Y-22971D01*
X-195213Y-20560D01*
X-194712Y-19809D01*
X-194536Y-18923D01*
Y14862D01*
X-194712Y15748D01*
X-195213Y16499D01*
X-196701Y17987D01*
X-197452Y18488D01*
X-198338Y18664D01*
X-204713D01*
X-206220Y20580D01*
X-206220Y24115D01*
X-203680Y25167D01*
X-201007Y22493D01*
X-200256Y21992D01*
X-199370Y21816D01*
X-176700D01*
Y20130D01*
X-166200D01*
Y21816D01*
X-128954D01*
X-128682Y20803D01*
X-127548Y18837D01*
X-125943Y17232D01*
X-123977Y16098D01*
X-121785Y15510D01*
X-119515D01*
X-117323Y16098D01*
X-115357Y17232D01*
X-113752Y18837D01*
X-112618Y20803D01*
X-112030Y22995D01*
Y25265D01*
X-112618Y27457D01*
X-113752Y29423D01*
X-115357Y31028D01*
X-117323Y32162D01*
X-119515Y32750D01*
X-121785D01*
X-123977Y32162D01*
X-125943Y31028D01*
X-127548Y29423D01*
X-128682Y27457D01*
X-128954Y26444D01*
X-164136D01*
X-164279Y26928D01*
X-162376Y29436D01*
X-138430D01*
X-137544Y29612D01*
X-136793Y30113D01*
X-124885Y42022D01*
X-123977Y41498D01*
X-121785Y40910D01*
X-119515D01*
X-117323Y41498D01*
X-115357Y42632D01*
X-113752Y44237D01*
X-112618Y46203D01*
X-112030Y48395D01*
Y50665D01*
X-112618Y52857D01*
X-113752Y54823D01*
X-115357Y56428D01*
X-117323Y57562D01*
X-119515Y58150D01*
X-121785D01*
X-123977Y57562D01*
X-125943Y56428D01*
X-127548Y54823D01*
X-128682Y52857D01*
X-129270Y50665D01*
Y48395D01*
X-128682Y46203D01*
X-128158Y45295D01*
X-139389Y34065D01*
X-164660D01*
Y37860D01*
X-171450D01*
Y39130D01*
X-172720D01*
Y44670D01*
X-177360D01*
X-177360Y44896D01*
Y46990D01*
X-182880D01*
Y42720D01*
X-178240D01*
X-178240Y42495D01*
Y39527D01*
X-178900Y37260D01*
X-189400D01*
Y37260D01*
X-190876Y36649D01*
X-193963Y39737D01*
X-194714Y40238D01*
X-195600Y40415D01*
X-196850D01*
X-197736Y40238D01*
X-198422Y39780D01*
X-203804D01*
X-206220Y40080D01*
X-206220Y42620D01*
X-206220Y46580D01*
X-204067Y47516D01*
X-199090D01*
X-198204Y47692D01*
X-197453Y48193D01*
X-193480Y52167D01*
X-190940Y51115D01*
Y49530D01*
X-185420D01*
Y53800D01*
X-188255D01*
X-189307Y56340D01*
X-188693Y56953D01*
X-188192Y57704D01*
X-188015Y58590D01*
Y80467D01*
X-187586Y80799D01*
X-184163Y80250D01*
X-184001Y80007D01*
X-183909Y79945D01*
X-183867Y79843D01*
X-181777Y77753D01*
X-181675Y77711D01*
X-181613Y77619D01*
X-179156Y75977D01*
X-179048Y75956D01*
X-178969Y75877D01*
X-176240Y74746D01*
X-176129D01*
X-176036Y74685D01*
X-173139Y74108D01*
X-173030Y74130D01*
X-172927Y74088D01*
X-169973D01*
X-169870Y74130D01*
X-169762Y74108D01*
X-166863Y74685D01*
X-166771Y74746D01*
X-166660D01*
X-163931Y75877D01*
X-163852Y75956D01*
X-163743Y75977D01*
X-161287Y77619D01*
X-161225Y77711D01*
X-161123Y77753D01*
X-159033Y79843D01*
X-158991Y79945D01*
X-158899Y80007D01*
X-157257Y82464D01*
X-157236Y82572D01*
X-157157Y82651D01*
X-156026Y85380D01*
Y85491D01*
X-155965Y85583D01*
X-155388Y88481D01*
X-155410Y88590D01*
X-155368Y88693D01*
Y91647D01*
X-155410Y91750D01*
X-155388Y91859D01*
X-155965Y94756D01*
X-156026Y94849D01*
Y94960D01*
X-157157Y97689D01*
X-157236Y97768D01*
X-157257Y97877D01*
X-158899Y100333D01*
X-158991Y100395D01*
X-159033Y100497D01*
X-161123Y102587D01*
X-161225Y102629D01*
X-161287Y102721D01*
X-163743Y104363D01*
X-163852Y104384D01*
X-163931Y104463D01*
X-166660Y105594D01*
X-166771D01*
X-166863Y105655D01*
X-169762Y106232D01*
X-169870Y106210D01*
X-169973Y106252D01*
X-172927D01*
X-173030Y106210D01*
X-173139Y106232D01*
X-176036Y105655D01*
X-176129Y105594D01*
X-176240D01*
X-178969Y104463D01*
X-179048Y104384D01*
X-179156Y104363D01*
X-181613Y102721D01*
X-181675Y102629D01*
X-181777Y102587D01*
X-183867Y100497D01*
X-183909Y100395D01*
X-184001Y100333D01*
X-184163Y100090D01*
X-187586Y99541D01*
X-188015Y99873D01*
Y123123D01*
X-174776Y136363D01*
X-173868Y135838D01*
X-171676Y135251D01*
X-169406D01*
X-167214Y135838D01*
X-165248Y136973D01*
X-163643Y138578D01*
X-162509Y140544D01*
X-161921Y142736D01*
Y145006D01*
X-162346Y146590D01*
X-160175Y148011D01*
X-150675Y138512D01*
D02*
G37*
G36*
X-196534Y158504D02*
X-195399Y156539D01*
X-193794Y154934D01*
X-191829Y153799D01*
X-189636Y153211D01*
X-187367D01*
X-186038Y153568D01*
X-184723Y151290D01*
X-251149Y84865D01*
X-268864D01*
X-270027Y86104D01*
X-270569Y87227D01*
X-254488Y121969D01*
X-216940Y159517D01*
X-196805D01*
X-196534Y158504D01*
D02*
G37*
G36*
X-141518Y102657D02*
X-139913Y101052D01*
X-137947Y99917D01*
X-135755Y99330D01*
X-133485D01*
X-131293Y99917D01*
X-130385Y100442D01*
X-122964Y93021D01*
Y83234D01*
X-123977Y82963D01*
X-125943Y81828D01*
X-127548Y80223D01*
X-128682Y78257D01*
X-129270Y76065D01*
Y73795D01*
X-128682Y71603D01*
X-127548Y69637D01*
X-126265Y68355D01*
X-126503Y67030D01*
X-127181Y65814D01*
X-143603D01*
X-145006Y67217D01*
Y102575D01*
X-144584Y102889D01*
X-141518Y102657D01*
D02*
G37*
G36*
X-74397Y74244D02*
X-77878Y70588D01*
X-77880Y70584D01*
X-77884Y70582D01*
X-84420Y62617D01*
X-84422Y62612D01*
X-84427Y62608D01*
X-89930Y54372D01*
X-90933Y54387D01*
X-92470Y55092D01*
Y55415D01*
X-92647Y56301D01*
X-93148Y57051D01*
X-93782Y57685D01*
X-93782Y57685D01*
X-101233Y65137D01*
X-101984Y65638D01*
X-102870Y65814D01*
X-114119D01*
X-114797Y67030D01*
X-115035Y68355D01*
X-113752Y69637D01*
X-112618Y71603D01*
X-112030Y73795D01*
Y76065D01*
X-112618Y78257D01*
X-113752Y80223D01*
X-115357Y81828D01*
X-117323Y82963D01*
X-118336Y83234D01*
Y93980D01*
X-118512Y94866D01*
X-119013Y95617D01*
X-127112Y103715D01*
X-126587Y104623D01*
X-126000Y106815D01*
Y109085D01*
X-126587Y111277D01*
X-127722Y113243D01*
X-129327Y114848D01*
X-131293Y115983D01*
X-132305Y116254D01*
Y128834D01*
X-129959Y129806D01*
X-74397Y74244D01*
D02*
G37*
G36*
X-178433Y147442D02*
X-178574Y147198D01*
X-179161Y145006D01*
Y142736D01*
X-178574Y140544D01*
X-178049Y139636D01*
X-191967Y125719D01*
X-192468Y124968D01*
X-192645Y124082D01*
Y59549D01*
X-200049Y52144D01*
X-204067D01*
X-206220Y53080D01*
X-206220Y55620D01*
X-206220Y59580D01*
X-206220Y62120D01*
Y66080D01*
X-218720D01*
X-218720Y59580D01*
X-218720Y57040D01*
X-218720Y53080D01*
X-218720Y50540D01*
X-218720Y46580D01*
X-220872Y45644D01*
X-222032D01*
X-222918Y45468D01*
X-223669Y44967D01*
X-225157Y43479D01*
X-225658Y42728D01*
X-225835Y41842D01*
Y31770D01*
X-228375Y30718D01*
X-261143Y63487D01*
X-261720Y63872D01*
Y66080D01*
X-273276D01*
Y70436D01*
X-268563Y80143D01*
X-268536Y80169D01*
X-268536Y80169D01*
X-268470Y80236D01*
X-250190D01*
X-249304Y80412D01*
X-248553Y80913D01*
X-180465Y149001D01*
X-178433Y147442D01*
D02*
G37*
G36*
X-230914Y26712D02*
Y-72390D01*
X-230738Y-73276D01*
X-230237Y-74027D01*
X-230008Y-74255D01*
X-228223Y-76056D01*
X-230829Y-78662D01*
X-235175Y-74316D01*
Y27381D01*
X-233831Y28240D01*
X-232696Y28493D01*
X-230914Y26712D01*
D02*
G37*
%LPC*%
G36*
X-160663Y132197D02*
X-160711Y132149D01*
X-162048Y129832D01*
X-162740Y127248D01*
Y124573D01*
X-162048Y121989D01*
X-160711Y119672D01*
X-160663Y119624D01*
X-154376Y125910D01*
X-160663Y132197D01*
D02*
G37*
G36*
X-177360Y53800D02*
X-182880D01*
Y49530D01*
X-177360D01*
Y53800D01*
D02*
G37*
G36*
X-185420Y46990D02*
X-190940D01*
Y42720D01*
X-185420D01*
Y46990D01*
D02*
G37*
G36*
X-170180Y44670D02*
Y40400D01*
X-164660D01*
Y44670D01*
X-170180D01*
D02*
G37*
G36*
X-121920Y8890D02*
X-121988D01*
X-124572Y8198D01*
X-126888Y6860D01*
X-128780Y4968D01*
X-130118Y2652D01*
X-130810Y68D01*
Y0D01*
X-121920D01*
Y8890D01*
D02*
G37*
G36*
Y-2540D02*
X-130810D01*
Y-2608D01*
X-130118Y-5192D01*
X-128780Y-7508D01*
X-126888Y-9400D01*
X-124572Y-10738D01*
X-121988Y-11430D01*
X-121920D01*
Y-2540D01*
D02*
G37*
G36*
X-157513Y-3167D02*
X-161946Y-7601D01*
X-150441Y-19105D01*
X-146008Y-14672D01*
X-157513Y-3167D01*
D02*
G37*
G36*
X-208320Y-20320D02*
X-212090D01*
Y-25090D01*
X-208320D01*
Y-20320D01*
D02*
G37*
G36*
X-214630D02*
X-218400D01*
Y-25090D01*
X-214630D01*
Y-20320D01*
D02*
G37*
G36*
X-163742Y-9397D02*
X-168176Y-13830D01*
X-156671Y-25335D01*
X-152238Y-20902D01*
X-163742Y-9397D01*
D02*
G37*
G36*
X-144212Y-16468D02*
X-148645Y-20902D01*
X-137141Y-32406D01*
X-132707Y-27973D01*
X-144212Y-16468D01*
D02*
G37*
G36*
X-150441Y-22698D02*
X-154875Y-27131D01*
X-143370Y-38636D01*
X-138937Y-34202D01*
X-150441Y-22698D01*
D02*
G37*
G36*
X-171655Y-19487D02*
X-180140Y-27973D01*
X-157513Y-50600D01*
X-149027Y-42115D01*
X-171655Y-19487D01*
D02*
G37*
G36*
X-185797Y-33629D02*
X-194282Y-42115D01*
X-171655Y-64742D01*
X-163169Y-56257D01*
X-185797Y-33629D01*
D02*
G37*
G36*
X-253620Y-79630D02*
X-262890D01*
Y-88900D01*
X-253620D01*
Y-79630D01*
D02*
G37*
G36*
X-243207Y-115463D02*
X-247640Y-119896D01*
X-236136Y-131401D01*
X-231702Y-126967D01*
X-243207Y-115463D01*
D02*
G37*
G36*
X-249436Y-121692D02*
X-253870Y-126126D01*
X-242365Y-137631D01*
X-237932Y-133197D01*
X-249436Y-121692D01*
D02*
G37*
G36*
X-44376Y-118482D02*
X-52861Y-126967D01*
X-30233Y-149595D01*
X-21748Y-141110D01*
X-44376Y-118482D01*
D02*
G37*
G36*
X-58518Y-132624D02*
X-67003Y-141110D01*
X-44376Y-163737D01*
X-35890Y-155252D01*
X-58518Y-132624D01*
D02*
G37*
G36*
X-72660Y-146767D02*
X-81145Y-155252D01*
X-58518Y-177879D01*
X-50032Y-169394D01*
X-72660Y-146767D01*
D02*
G37*
G36*
X-31543Y-187118D02*
X-34497D01*
X-34600Y-187160D01*
X-34709Y-187138D01*
X-37606Y-187715D01*
X-37699Y-187777D01*
X-37810D01*
X-40539Y-188907D01*
X-40618Y-188986D01*
X-40726Y-189007D01*
X-43183Y-190649D01*
X-43245Y-190741D01*
X-43347Y-190783D01*
X-45437Y-192873D01*
X-45479Y-192975D01*
X-45571Y-193037D01*
X-47213Y-195494D01*
X-47234Y-195602D01*
X-47313Y-195681D01*
X-48444Y-198410D01*
Y-198521D01*
X-48505Y-198613D01*
X-49082Y-201511D01*
X-49060Y-201620D01*
X-49102Y-201723D01*
Y-204677D01*
X-49060Y-204780D01*
X-49082Y-204889D01*
X-48505Y-207787D01*
X-48444Y-207879D01*
Y-207990D01*
X-47313Y-210719D01*
X-47234Y-210798D01*
X-47213Y-210907D01*
X-45571Y-213363D01*
X-45479Y-213425D01*
X-45437Y-213527D01*
X-43347Y-215617D01*
X-43245Y-215659D01*
X-43183Y-215751D01*
X-40726Y-217393D01*
X-40618Y-217414D01*
X-40539Y-217493D01*
X-37810Y-218624D01*
X-37699D01*
X-37606Y-218685D01*
X-34708Y-219262D01*
X-34600Y-219240D01*
X-34497Y-219282D01*
X-31543D01*
X-31440Y-219240D01*
X-31332Y-219262D01*
X-28433Y-218685D01*
X-28341Y-218624D01*
X-28230D01*
X-25501Y-217493D01*
X-25422Y-217414D01*
X-25313Y-217393D01*
X-22857Y-215751D01*
X-22795Y-215659D01*
X-22693Y-215617D01*
X-20603Y-213527D01*
X-20561Y-213425D01*
X-20469Y-213363D01*
X-18827Y-210907D01*
X-18806Y-210798D01*
X-18727Y-210719D01*
X-17596Y-207990D01*
Y-207879D01*
X-17535Y-207787D01*
X-16958Y-204889D01*
X-16980Y-204780D01*
X-16938Y-204677D01*
Y-201723D01*
X-16980Y-201620D01*
X-16958Y-201511D01*
X-17535Y-198613D01*
X-17596Y-198521D01*
Y-198410D01*
X-18727Y-195681D01*
X-18806Y-195602D01*
X-18827Y-195494D01*
X-20469Y-193037D01*
X-20561Y-192975D01*
X-20603Y-192873D01*
X-22693Y-190783D01*
X-22795Y-190741D01*
X-22857Y-190649D01*
X-25313Y-189007D01*
X-25422Y-188986D01*
X-25501Y-188907D01*
X-28230Y-187777D01*
X-28341D01*
X-28433Y-187715D01*
X-31332Y-187138D01*
X-31440Y-187160D01*
X-31543Y-187118D01*
D02*
G37*
G36*
X-86802Y-160909D02*
X-95287Y-169394D01*
X-72660Y-192021D01*
X-64174Y-183536D01*
X-86802Y-160909D01*
D02*
G37*
G36*
X-129228Y-201157D02*
X-133662Y-205591D01*
X-122157Y-217095D01*
X-117724Y-212662D01*
X-129228Y-201157D01*
D02*
G37*
G36*
X-135458Y-207387D02*
X-139891Y-211820D01*
X-128387Y-223325D01*
X-123953Y-218891D01*
X-135458Y-207387D01*
D02*
G37*
G36*
X-115928Y-214458D02*
X-120361Y-218891D01*
X-108857Y-230396D01*
X-104423Y-225962D01*
X-115928Y-214458D01*
D02*
G37*
G36*
X-122157Y-220687D02*
X-126591Y-225121D01*
X-115086Y-236626D01*
X-110653Y-232192D01*
X-122157Y-220687D01*
D02*
G37*
G36*
X-143370Y-217477D02*
X-151856Y-225962D01*
X-129228Y-248590D01*
X-120743Y-240105D01*
X-143370Y-217477D01*
D02*
G37*
%LPD*%
D10*
X-147320Y66258D02*
Y113030D01*
X-242570Y8420D02*
Y26670D01*
X-259230Y43330D02*
X-242570Y26670D01*
X-264160Y-13170D02*
X-242570Y8420D01*
X-267970Y43330D02*
X-259230D01*
X-266990Y61850D02*
X-262780D01*
X-228600Y27670D01*
X-250190Y82550D02*
X-172720Y160020D01*
X-228600Y-72390D02*
Y27670D01*
X-228223Y-112825D02*
X-222948D01*
X-218147Y-108024D01*
X-213141D02*
X-204740Y-99623D01*
Y-96250D01*
X-228600Y-72390D02*
X-204740Y-96250D01*
X-218147Y-108024D02*
X-213141D01*
X-267970Y62830D02*
X-266990Y61850D01*
X-285750Y50391D02*
X-283001Y64213D01*
X-284262Y17330D02*
X-267970D01*
X-269429Y82550D02*
X-250190D01*
X-270173Y81806D02*
X-269429Y82550D01*
X-275590Y70968D02*
X-270475Y81504D01*
X-275590Y58957D02*
X-271950Y57310D01*
X-270475Y81504D02*
X-270173Y81806D01*
X-275590Y58957D02*
Y70968D01*
X-285750Y18818D02*
X-285006Y18074D01*
X-285750Y18818D02*
Y50391D01*
X-281953Y68144D02*
X-256416Y123314D01*
X-282051Y67932D02*
X-281953Y68144D01*
X-283001Y64213D02*
X-282051Y67932D01*
X-285006Y18074D02*
X-284262Y17330D01*
X-271950Y57310D02*
X-267970Y56330D01*
X-272341Y110043D02*
X-266091Y124402D01*
X-283777Y75486D02*
X-272341Y110043D01*
X-286454Y64997D02*
X-285209Y69874D01*
X-289290Y50739D02*
X-286454Y64997D01*
X-293338Y13415D02*
X-293165Y18271D01*
X-285209Y69874D02*
X-283777Y75486D01*
X-293165Y18271D02*
X-289290Y50739D01*
X-223520Y-60960D02*
X-207010Y-77470D01*
X-223520Y-60960D02*
Y41842D01*
X-237490Y-75274D02*
Y27940D01*
X-266990Y48850D02*
X-258400D01*
X-237490Y27940D01*
X-267970Y49830D02*
X-266990Y48850D01*
X-102870Y63500D02*
X-95418Y56048D01*
X-78740Y-205740D02*
X-66040D01*
X-35646Y-100232D02*
X-26188Y-103116D01*
X-15542Y-105233D02*
X-5733Y-106230D01*
X-45236Y-96289D02*
X-36099Y-100073D01*
X-45669Y-96080D02*
X-45236Y-96289D01*
X-63039Y-85707D02*
X-54806Y-91174D01*
X-129131Y-263829D02*
X-114887Y-270334D01*
X-66040Y-205740D02*
X-1370Y-141070D01*
X-103223Y25716D02*
X-103116Y26188D01*
X-91431Y-54396D02*
X-91174Y-54806D01*
X-100812Y-275876D02*
X-99278D01*
X-182261Y-230350D02*
X-169671Y-239776D01*
X-105179Y-16029D02*
X-103223Y-25716D01*
X-54396Y-91431D02*
X-45669Y-96080D01*
X-253944Y-147624D02*
X-245679Y-161005D01*
X-103116Y-26188D02*
X-100232Y-35646D01*
X-2858Y-106337D02*
X-1370Y-107825D01*
X-236709Y-173923D02*
X-227061Y-186344D01*
X-95418Y56048D02*
X-94785Y55415D01*
X-99278Y-275876D02*
X-97790Y-274388D01*
X-100073Y-36100D02*
X-96289Y-45237D01*
X-227061Y-186344D02*
X-216761Y-198230D01*
X-156650Y-248476D02*
X-156594Y-248513D01*
X-268240Y-119694D02*
X-261482Y-133820D01*
X-103116Y26188D02*
X-94785Y53512D01*
X-96289Y-45237D02*
X-96080Y-45669D01*
X-106243Y-5720D02*
Y5720D01*
X-114887Y-270334D02*
X-114825Y-270362D01*
X-79170Y-71081D02*
X-71081Y-79170D01*
X-279521Y-90271D02*
X-274288Y-105102D01*
X-293338Y-14568D02*
X-292321Y-28791D01*
X-114825Y-270362D02*
X-100812Y-275876D01*
X-54806Y-91174D02*
X-54396Y-91431D01*
X-1370Y-141070D02*
Y-107825D01*
X-105233Y-15542D02*
X-105179Y-16029D01*
X-25716Y-103223D02*
X-16029Y-105179D01*
X-106243Y5720D02*
X-105233Y15541D01*
X-85401Y-63422D02*
X-79170Y-71081D01*
X-283952Y-75180D02*
X-279521Y-90271D01*
X-106189Y-5774D02*
X-105233Y-15474D01*
X-5733Y-106230D02*
X-2858Y-106337D01*
X-268270Y-119633D02*
X-268240Y-119694D01*
X-26188Y-103116D02*
X-25716Y-103223D01*
X-36099Y-100073D02*
X-35646Y-100232D01*
X-143068Y-256539D02*
X-129131Y-263829D01*
X-245679Y-161005D02*
X-236709Y-173923D01*
X-100232Y-35646D02*
X-100073Y-36100D01*
X-287568Y-59874D02*
X-283952Y-75180D01*
X-85707Y-63039D02*
X-85401Y-63422D01*
X-194329Y-220265D02*
X-182261Y-230350D01*
X-293338Y-14568D02*
Y13415D01*
X-105233Y15541D02*
X-105179Y16028D01*
X-169671Y-239776D02*
X-156650Y-248476D01*
X-290361Y-44396D02*
X-287568Y-59874D01*
X-261482Y-133820D02*
X-253944Y-147624D01*
X-103223Y-25716D02*
X-103116Y-26188D01*
X-105233Y-15474D02*
X-105233Y-15542D01*
X-216761Y-198230D02*
X-205871Y-209516D01*
X-63422Y-85401D02*
X-63039Y-85707D01*
X-94785Y53512D02*
Y55415D01*
X-96080Y-45669D02*
X-91431Y-54396D01*
X-105179Y16028D02*
X-103223Y25716D01*
X-205871Y-209516D02*
X-205824Y-209563D01*
X-194329Y-220265D01*
X-71081Y-79170D02*
X-63422Y-85401D01*
X-91174Y-54806D02*
X-85707Y-63039D01*
X-274288Y-105102D02*
X-268270Y-119633D01*
X-16029Y-105179D02*
X-15542Y-105233D01*
X-156594Y-248513D02*
X-143068Y-256539D01*
X-292321Y-28791D02*
X-290361Y-44396D01*
X-106243Y-5720D02*
X-106189Y-5774D01*
X-290753Y10830D02*
X-267970D01*
X-256416Y123314D02*
X-217899Y161831D01*
X-188501D01*
X-144562Y63500D02*
X-102870D01*
X-147320Y66258D02*
X-144562Y63500D01*
X-147320Y113030D02*
X-139700Y120650D01*
Y130810D01*
X-168910Y160020D02*
X-139700Y130810D01*
X-212470Y49830D02*
X-199090D01*
X-190330Y58590D01*
Y124082D01*
X-199370Y24130D02*
X-120650D01*
X-204590Y29350D02*
X-199370Y24130D01*
X-189250Y31750D02*
X-138430D01*
X-195600Y38100D02*
X-189250Y31750D01*
X-138430D02*
X-120650Y49530D01*
X-196850Y38100D02*
X-195600D01*
X-211835Y37465D02*
X-196850D01*
X-172720Y160020D02*
X-168910D01*
X-93873Y-190607D02*
X-78740Y-205740D01*
X-190330Y124082D02*
X-170541Y143871D01*
X-198338Y16350D02*
X-196850Y14862D01*
X-199939Y-22012D02*
X-196850Y-18923D01*
X-211490Y16350D02*
X-198338D01*
X-196850Y-18923D02*
Y14862D01*
X-199939Y-56257D02*
Y-22012D01*
X-203200Y-5080D02*
Y8362D01*
X-204688Y9850D02*
X-203200Y8362D01*
X-211490Y9850D02*
X-204688D01*
X-207170Y-9050D02*
X-203200Y-5080D01*
X-212470Y10830D02*
X-211490Y9850D01*
X-213360Y-9050D02*
X-207170D01*
X-223520Y41842D02*
X-222032Y43330D01*
X-212470D01*
X-266091Y124402D02*
X-260406Y135761D01*
X-251232Y152190D02*
X-242766Y165364D01*
X-260406Y135761D02*
X-251232Y152190D01*
X-108015Y-204749D02*
X-97790Y-214974D01*
Y-274388D02*
Y-214974D01*
X-293338Y13415D02*
X-290753Y10830D01*
X-207544Y205607D02*
X-206800Y204863D01*
X-213188Y202067D02*
X-209649Y205607D01*
X-223698Y190367D02*
X-213188Y202067D01*
X-233567Y178121D02*
X-223698Y190367D01*
X-242766Y165364D02*
X-233567Y178121D01*
X-209649Y205607D02*
X-207544D01*
X-206800Y204863D02*
X-134620Y132683D01*
Y107950D02*
Y132683D01*
X-120650Y74930D02*
Y93980D01*
X-134620Y107950D02*
X-120650Y93980D01*
X-235294Y-105754D02*
X-228223Y-112825D01*
X-237490Y-75274D02*
X-221152Y-91612D01*
X-212470Y17330D02*
X-211490Y16350D01*
X-199939Y-56257D02*
X-192868Y-63328D01*
X-212470Y30330D02*
X-211490Y29350D01*
X-204590D01*
X-212470Y36830D02*
X-211835Y37465D01*
D11*
X-264160Y-13170D02*
D03*
Y-90170D02*
D03*
D12*
X-212470Y56330D02*
D03*
Y62830D02*
D03*
Y49830D02*
D03*
Y43330D02*
D03*
Y36830D02*
D03*
Y30330D02*
D03*
Y23830D02*
D03*
Y17330D02*
D03*
Y10830D02*
D03*
Y4330D02*
D03*
X-267970Y56330D02*
D03*
Y62830D02*
D03*
Y49830D02*
D03*
Y43330D02*
D03*
Y36830D02*
D03*
Y30330D02*
D03*
Y23830D02*
D03*
Y17330D02*
D03*
Y10830D02*
D03*
Y4330D02*
D03*
D13*
X-213360Y-19050D02*
D03*
Y-9050D02*
D03*
D14*
X-178726Y-49186D02*
D03*
X-150442Y-20902D02*
D03*
X-164584Y-35044D02*
D03*
X-207010Y-77470D02*
D03*
X-192868Y-63328D02*
D03*
X-235294Y-105754D02*
D03*
X-221152Y-91612D02*
D03*
X-249436Y-119896D02*
D03*
X-37304Y-134039D02*
D03*
X-51446Y-148181D02*
D03*
X-79731Y-176465D02*
D03*
X-65589Y-162323D02*
D03*
X-108015Y-204749D02*
D03*
X-122157Y-218891D02*
D03*
X-93873Y-190607D02*
D03*
X-136299Y-233034D02*
D03*
D15*
X-184150Y48260D02*
D03*
Y33260D02*
D03*
X-171450Y39130D02*
D03*
Y24130D02*
D03*
D22*
X-188501Y161831D02*
D03*
X-170541Y143871D02*
D03*
X-152580Y125911D02*
D03*
X-134620Y107950D02*
D03*
X-120650Y74930D02*
D03*
Y49530D02*
D03*
Y24130D02*
D03*
Y-1270D02*
D03*
M02*
