G04*
G04 #@! TF.GenerationSoftware,Altium Limited,Altium Designer,25.0.2 (28)*
G04*
G04 Layer_Color=8388736*
%FSLAX44Y44*%
%MOMM*%
G71*
G04*
G04 #@! TF.SameCoordinates,89898D10-9EB2-4BDF-882C-36E145BBBF18*
G04*
G04*
G04 #@! TF.FilePolarity,Negative*
G04*
G01*
G75*
%ADD16R,1.8032X1.8032*%
%ADD17R,1.2532X0.6532*%
%ADD18R,0.7032X0.9032*%
G04:AMPARAMS|DCode=19|XSize=3.2032mm|YSize=1.2032mm|CornerRadius=0mm|HoleSize=0mm|Usage=FLASHONLY|Rotation=135.000|XOffset=0mm|YOffset=0mm|HoleType=Round|Shape=Rectangle|*
%AMROTATEDRECTD19*
4,1,4,1.5579,-0.7071,0.7071,-1.5579,-1.5579,0.7071,-0.7071,1.5579,1.5579,-0.7071,0.0*
%
%ADD19ROTATEDRECTD19*%

%ADD20R,1.0532X0.8032*%
%ADD21C,1.7272*%
D16*
X-264160Y-13170D02*
D03*
Y-90170D02*
D03*
D17*
X-212470Y56330D02*
D03*
Y62830D02*
D03*
Y49830D02*
D03*
Y43330D02*
D03*
Y36830D02*
D03*
Y30330D02*
D03*
Y23830D02*
D03*
Y17330D02*
D03*
Y10830D02*
D03*
Y4330D02*
D03*
X-267970Y56330D02*
D03*
Y62830D02*
D03*
Y49830D02*
D03*
Y43330D02*
D03*
Y36830D02*
D03*
Y30330D02*
D03*
Y23830D02*
D03*
Y17330D02*
D03*
Y10830D02*
D03*
Y4330D02*
D03*
D18*
X-213360Y-19050D02*
D03*
Y-9050D02*
D03*
D19*
X-178726Y-49186D02*
D03*
X-150442Y-20902D02*
D03*
X-164584Y-35044D02*
D03*
X-207010Y-77470D02*
D03*
X-192868Y-63328D02*
D03*
X-235294Y-105754D02*
D03*
X-221152Y-91612D02*
D03*
X-249436Y-119896D02*
D03*
X-37304Y-134039D02*
D03*
X-51446Y-148181D02*
D03*
X-79731Y-176465D02*
D03*
X-65589Y-162323D02*
D03*
X-108015Y-204749D02*
D03*
X-122157Y-218891D02*
D03*
X-93873Y-190607D02*
D03*
X-136299Y-233034D02*
D03*
D20*
X-184150Y48260D02*
D03*
Y33260D02*
D03*
X-171450Y39130D02*
D03*
Y24130D02*
D03*
D21*
X-188501Y161831D02*
D03*
X-170541Y143871D02*
D03*
X-152580Y125911D02*
D03*
X-134620Y107950D02*
D03*
X-120650Y74930D02*
D03*
Y49530D02*
D03*
Y24130D02*
D03*
Y-1270D02*
D03*
M02*
